<svg width="24" height="24" viewBox="0 0 24 24" fill="none" xmlns="http://www.w3.org/2000/svg">
<path d="M12.0037 5.83838C8.6007 5.83838 5.8457 8.59638 5.8457 11.9964C5.8457 15.3994 8.6037 18.1544 12.0037 18.1544C15.4067 18.1544 18.1617 15.3964 18.1617 11.9964C18.1617 8.59338 15.4037 5.83838 12.0037 5.83838ZM12.0037 15.9934C9.7947 15.9934 8.0067 14.2044 8.0067 11.9964C8.0067 9.78838 9.7957 7.99938 12.0037 7.99938C14.2117 7.99938 16.0007 9.78838 16.0007 11.9964C16.0017 14.2044 14.2127 15.9934 12.0037 15.9934Z" fill="#53BF51"/>
<path d="M16.9482 0.0768515C14.7402 -0.0261485 9.27123 -0.0211485 7.06123 0.0768515C5.11923 0.167852 3.40623 0.636851 2.02523 2.01785C-0.282773 4.32585 0.0122273 7.43585 0.0122273 11.9969C0.0122273 16.6649 -0.247773 19.7029 2.02523 21.9759C4.34223 24.2919 7.49723 23.9889 12.0042 23.9889C16.6282 23.9889 18.2242 23.9919 19.8592 23.3589C22.0822 22.4959 23.7602 20.5089 23.9242 16.9399C24.0282 14.7309 24.0222 9.26285 23.9242 7.05285C23.7262 2.83985 21.4652 0.284852 16.9482 0.0768515ZM20.4432 20.4489C18.9302 21.9619 16.8312 21.8269 11.9752 21.8269C6.97523 21.8269 4.97023 21.9009 3.50723 20.4339C1.82223 18.7569 2.12723 16.0639 2.12723 11.9809C2.12723 6.45585 1.56023 2.47685 7.10523 2.19285C8.37923 2.14785 8.75423 2.13285 11.9612 2.13285L12.0062 2.16285C17.3352 2.16285 21.5162 1.60485 21.7672 7.14885C21.8242 8.41385 21.8372 8.79385 21.8372 11.9959C21.8362 16.9379 21.9302 18.9549 20.4432 20.4489Z" fill="#53BF51"/>
<path d="M18.4058 7.03425C19.2005 7.03425 19.8448 6.38999 19.8448 5.59525C19.8448 4.80051 19.2005 4.15625 18.4058 4.15625C17.6111 4.15625 16.9668 4.80051 16.9668 5.59525C16.9668 6.38999 17.6111 7.03425 18.4058 7.03425Z" fill="#53BF51"/>
</svg>
