<svg width="13" height="16" viewBox="0 0 13 16" fill="none" xmlns="http://www.w3.org/2000/svg">
<path d="M6.18182 12.1905C6.5917 12.1905 6.98479 12.0299 7.27462 11.7442C7.56445 11.4584 7.72727 11.0708 7.72727 10.6667C7.72727 9.82095 7.03182 9.14286 6.18182 9.14286C5.77194 9.14286 5.37885 9.3034 5.08902 9.58917C4.79919 9.87494 4.63636 10.2625 4.63636 10.6667C4.63636 11.0708 4.79919 11.4584 5.08902 11.7442C5.37885 12.0299 5.77194 12.1905 6.18182 12.1905ZM10.8182 5.33333C11.2281 5.33333 11.6212 5.49388 11.911 5.77965C12.2008 6.06542 12.3636 6.453 12.3636 6.85714V14.4762C12.3636 14.8803 12.2008 15.2679 11.911 15.5537C11.6212 15.8395 11.2281 16 10.8182 16H1.54545C1.13557 16 0.742482 15.8395 0.452653 15.5537C0.162824 15.2679 0 14.8803 0 14.4762V6.85714C0 6.01143 0.695454 5.33333 1.54545 5.33333H2.31818V3.80952C2.31818 2.79918 2.72524 1.83021 3.44981 1.11578C4.17439 0.401359 5.15712 0 6.18182 0C6.6892 0 7.19161 0.0985363 7.66037 0.289983C8.12913 0.481429 8.55505 0.762037 8.91382 1.11578C9.27259 1.46953 9.55719 1.88949 9.75135 2.35168C9.94552 2.81387 10.0455 3.30925 10.0455 3.80952V5.33333H10.8182ZM6.18182 1.52381C5.567 1.52381 4.97736 1.76463 4.54262 2.19328C4.10787 2.62193 3.86364 3.20331 3.86364 3.80952V5.33333H8.5V3.80952C8.5 3.20331 8.25576 2.62193 7.82102 2.19328C7.38628 1.76463 6.79664 1.52381 6.18182 1.52381Z" fill="#53BF51"/>
</svg>
