<svg width="31" height="25" viewBox="0 0 31 25" fill="none" xmlns="http://www.w3.org/2000/svg">
<path opacity="0.05" d="M10.08 11.448C11.28 11.976 12.216 12.768 12.888 13.824C13.56 14.88 13.896 16.128 13.896 17.568C13.896 19.632 13.248 21.312 11.952 22.608C10.656 23.856 9 24.48 6.984 24.48C4.968 24.48 3.288 23.832 1.944 22.536C0.648 21.24 0 19.584 0 17.568C0 16.608 0.12 15.648 0.36 14.688C0.6 13.728 1.128 12.288 1.944 10.368L6.12 0H13.248L10.08 11.448ZM27.072 11.448C28.272 11.976 29.208 12.768 29.88 13.824C30.552 14.88 30.888 16.128 30.888 17.568C30.888 19.632 30.24 21.312 28.944 22.608C27.648 23.856 25.992 24.48 23.976 24.48C21.96 24.48 20.28 23.832 18.936 22.536C17.64 21.24 16.992 19.584 16.992 17.568C16.992 16.608 17.112 15.648 17.352 14.688C17.592 13.728 18.12 12.288 18.936 10.368L23.112 0H30.24L27.072 11.448Z" fill="#050606"/>
</svg>
