<svg width="445" height="96" viewBox="0 0 445 96" fill="none" xmlns="http://www.w3.org/2000/svg">
<g clip-path="url(#clip0)">
<path d="M116.954 80.8378H106.104V37.7578H115.678L134.346 61.5316V37.7578H145.195V80.9973H135.941L116.794 57.064V80.8378H116.954Z" fill="url(#paint0_linear)"/>
<path d="M168.65 81.6355C163.863 81.6355 159.715 80.1995 156.205 77.1679C152.854 74.1364 151.099 70.1475 151.099 65.2013C151.099 60.5742 152.694 56.5853 155.726 53.5538C158.758 50.3626 162.746 48.7671 167.693 48.7671C172.16 48.7671 175.83 50.3626 178.542 53.3942C181.414 56.4258 182.85 60.2551 182.85 65.2013V67.9137H161.949C162.427 69.5093 163.385 70.6262 165.14 71.5835C166.735 72.3813 168.81 72.86 171.203 72.86C174.554 72.86 177.904 71.9026 181.255 70.1475V78.6039C178.064 80.6782 173.915 81.6355 168.65 81.6355ZM161.789 62.0102H172.16C172.16 60.4146 171.682 59.1382 170.724 58.1809C169.767 57.2235 168.65 56.7449 167.214 56.7449C165.778 56.7449 164.502 57.2235 163.544 58.1809C162.587 59.1382 161.949 60.4146 161.789 62.0102Z" fill="url(#paint1_linear)"/>
<path d="M216.996 77.0084C213.645 80.1995 209.496 81.6355 204.391 81.6355C199.285 81.6355 194.977 80.0399 191.786 77.0084C188.435 73.8173 186.84 69.988 186.84 65.2013C186.84 60.5742 188.435 56.5853 191.786 53.5538C195.136 50.3626 199.444 48.7671 204.391 48.7671C209.496 48.7671 213.645 50.3626 216.996 53.5538C220.346 56.7449 221.942 60.5742 221.942 65.2013C221.942 69.988 220.346 73.8173 216.996 77.0084ZM211.252 65.2013C211.252 63.1271 210.613 61.5315 209.337 60.0955C208.06 58.6595 206.305 58.0213 204.391 58.0213C202.476 58.0213 200.721 58.6595 199.444 60.0955C198.168 61.5315 197.53 63.1271 197.53 65.2013C197.53 67.2755 198.168 69.0306 199.444 70.3071C200.721 71.7431 202.316 72.3813 204.391 72.3813C206.465 72.3813 208.06 71.7431 209.337 70.3071C210.613 68.8711 211.252 67.2755 211.252 65.2013Z" fill="url(#paint2_linear)"/>
<path d="M88.8723 13.186C82.49 17.8131 79.7776 26.11 82.1709 33.6091L84.2452 32.4922C82.1709 25.6314 83.926 18.2918 88.8723 13.186Z" fill="url(#paint3_linear)"/>
<path d="M94.4569 5.5275L91.904 0.900391L84.724 5.04883C77.8631 8.87816 74.5125 16.6964 75.6294 24.0359V24.1955C75.9485 25.9506 76.4271 27.5461 77.2249 29.3013C78.8205 33.9284 81.0542 40.6297 81.6925 43.8208C79.1396 30.5777 65.7369 24.355 53.6107 22.7595C46.7498 21.8021 39.5698 22.1213 33.0281 24.355C21.5401 28.3439 15.6365 39.1937 10.3712 49.5648C15.9556 53.7132 22.657 56.7448 29.5178 57.5426C36.3787 58.3403 43.8778 57.0639 49.6218 53.075C56.6423 48.4479 60.9503 40.6297 64.9391 33.1306C58.2378 31.0564 50.8983 31.2159 44.3565 33.7688C37.8147 36.3217 32.2303 41.1084 28.8796 47.1715C33.9854 36.4812 45.4734 29.1417 57.2805 29.1417C59.9929 29.1417 62.7054 29.4608 65.0987 30.5777C67.8111 31.6946 70.2045 33.7688 72.1191 36.0026C79.2991 44.2995 80.7351 57.2234 75.4698 66.9563C71.1618 75.0937 63.0245 80.6781 54.2489 83.231C44.0374 86.2625 32.709 85.3052 23.4547 80.1994C11.4881 72.8599 4.14853 57.5426 6.0632 43.1826C7.97786 28.3439 18.6681 17.4942 31.5921 11.2715C21.0614 14.4626 11.4881 21.6426 5.90364 31.2159C0.159649 41.2679 -1.59546 53.3941 1.59565 64.563C8.29698 87.3794 32.0707 100.463 54.8872 93.9212C59.1952 92.6447 63.184 90.7301 66.6943 88.4963C74.0338 83.8692 80.0969 76.8488 83.6071 68.2328C88.2342 56.5852 85.8409 45.7355 81.6925 35.0452C80.8947 33.1306 80.0969 30.7373 79.7778 28.0248C80.0969 21.9617 83.4476 16.2177 89.032 13.0266L90.6276 12.0693C82.9689 16.3773 79.6182 25.4719 82.1711 33.6092L87.596 30.5777C96.3716 25.6315 99.5627 14.303 94.4569 5.5275Z" fill="url(#paint4_linear)"/>
<path d="M30.9536 44.2995C38.7718 33.6093 52.6531 29.1418 65.0985 33.1306L63.1838 36.6409C51.8554 32.9711 39.5696 36.0026 30.9536 44.2995Z" fill="url(#paint5_linear)"/>
<path d="M244.12 80.9974H232.951V37.9175H253.214C258.001 37.9175 261.671 39.1939 264.543 41.7468C267.415 44.1401 268.851 47.3312 268.851 51.3201C268.851 54.1921 268.053 56.5855 266.617 58.6597C265.181 60.7339 263.107 62.3295 260.394 63.4463L273.478 81.157H260.714L248.428 64.7228H244.12V80.9974ZM244.12 47.3312V55.6281H252.736C254.331 55.6281 255.448 55.309 256.406 54.5112C257.363 53.7135 257.682 52.7561 257.682 51.4797C257.682 50.2032 257.203 49.2459 256.406 48.4481C255.448 47.6504 254.331 47.3312 252.736 47.3312H244.12Z" fill="black"/>
<path d="M291.827 81.7952C287.04 81.7952 282.892 80.3592 279.381 77.3276C276.031 74.2961 274.276 70.3072 274.276 65.361C274.276 60.7339 275.871 56.745 278.903 53.7134C281.934 50.5223 285.923 48.9268 290.869 48.9268C295.337 48.9268 299.007 50.5223 301.719 53.5539C304.591 56.5854 306.027 60.4147 306.027 65.361V68.0734H285.125C285.604 69.669 286.561 70.7858 288.317 71.7432C289.912 72.541 291.986 73.0196 294.38 73.0196C297.73 73.0196 301.081 72.0623 304.432 70.3072V78.7636C301.241 80.8378 297.092 81.7952 291.827 81.7952ZM285.125 62.3294H295.497C295.497 60.7339 295.018 59.4574 294.061 58.5001C293.103 57.5427 291.986 57.0641 290.55 57.0641C289.114 57.0641 287.838 57.5427 286.881 58.5001C285.923 59.2979 285.285 60.5743 285.125 62.3294Z" fill="black"/>
<path d="M333.949 80.9973H322.78V47.4907H309.856V37.7578H346.873V47.4907H333.79V80.9973H333.949Z" fill="black"/>
<path d="M361.712 81.7952C356.925 81.7952 352.777 80.3592 349.267 77.3276C345.916 74.2961 344.161 70.3072 344.161 65.361C344.161 60.7339 345.756 56.745 348.788 53.7134C351.82 50.5223 355.808 48.9268 360.755 48.9268C365.222 48.9268 368.892 50.5223 371.604 53.5539C374.476 56.5854 375.912 60.4147 375.912 65.361V68.0734H355.011C355.489 69.669 356.447 70.7858 358.202 71.7432C359.797 72.541 361.872 73.0196 364.265 73.0196C367.616 73.0196 370.966 72.0623 374.317 70.3072V78.7636C371.126 80.8378 366.977 81.7952 361.712 81.7952ZM355.011 62.3294H365.382C365.382 60.7339 364.903 59.4574 363.946 58.5001C362.988 57.5427 361.872 57.0641 360.436 57.0641C359 57.0641 357.723 57.5427 356.766 58.5001C355.808 59.2979 355.17 60.5743 355.011 62.3294Z" fill="black"/>
<path d="M396.974 81.7952C392.347 81.7952 388.358 80.3592 384.848 77.3276C381.497 74.2961 379.742 70.3072 379.742 65.2014C379.742 60.0956 381.497 56.1067 384.848 53.2348C388.358 50.3628 392.347 48.9268 396.974 48.9268C400.484 48.9268 403.516 49.565 406.228 50.8414V59.9361C403.675 58.8192 401.122 58.3405 398.729 58.3405C396.336 58.3405 394.421 58.9787 392.825 60.2552C391.23 61.5316 390.432 63.2867 390.432 65.361C390.432 67.4352 391.23 69.1903 392.825 70.4667C394.421 71.7432 396.336 72.3814 398.729 72.3814C401.761 72.3814 404.473 71.7432 406.707 70.4667V79.5614C403.675 81.1569 400.484 81.7952 396.974 81.7952Z" fill="black"/>
<path d="M424.417 61.5317V81.157H413.568V37.9175H424.417V53.2348C427.13 50.3628 430.321 48.9268 433.991 48.9268C437.501 48.9268 440.213 50.0437 442.128 52.437C444.043 54.8304 445.16 57.8619 445.16 61.8508V81.157H434.31V63.925C434.31 62.1699 433.831 60.8935 433.033 59.9361C432.236 59.1383 431.119 58.6597 429.842 58.6597C427.449 58.6597 425.694 59.617 424.417 61.5317Z" fill="black"/>
</g>
<defs>
<linearGradient id="paint0_linear" x1="85.9538" y1="85.9946" x2="205.62" y2="5.41912" gradientUnits="userSpaceOnUse">
<stop stop-color="#F8EB23"/>
<stop offset="0.5" stop-color="#78BB38"/>
<stop offset="1" stop-color="#43AC42"/>
</linearGradient>
<linearGradient id="paint1_linear" x1="102.29" y1="110.257" x2="221.957" y2="29.6812" gradientUnits="userSpaceOnUse">
<stop stop-color="#F8EB23"/>
<stop offset="0.5" stop-color="#78BB38"/>
<stop offset="1" stop-color="#43AC42"/>
</linearGradient>
<linearGradient id="paint2_linear" x1="113.267" y1="126.558" x2="232.933" y2="45.9822" gradientUnits="userSpaceOnUse">
<stop stop-color="#F8EB23"/>
<stop offset="0.5" stop-color="#78BB38"/>
<stop offset="1" stop-color="#43AC42"/>
</linearGradient>
<linearGradient id="paint3_linear" x1="84.515" y1="36.3206" x2="84.9964" y2="22.3588" gradientUnits="userSpaceOnUse">
<stop stop-color="#33B8F1"/>
<stop offset="0.5" stop-color="#209EEB"/>
<stop offset="1" stop-color="#1982D3"/>
</linearGradient>
<linearGradient id="paint4_linear" x1="14.0223" y1="87.2811" x2="94.9632" y2="-8.4194" gradientUnits="userSpaceOnUse">
<stop stop-color="#F8EB23"/>
<stop offset="0.5" stop-color="#78BB38"/>
<stop offset="1" stop-color="#43AC42"/>
</linearGradient>
<linearGradient id="paint5_linear" x1="32.6235" y1="95.5888" x2="44.3679" y2="52.4203" gradientUnits="userSpaceOnUse">
<stop stop-color="#F8EB23"/>
<stop offset="0.5" stop-color="#78BB38"/>
<stop offset="1" stop-color="#43AC42"/>
</linearGradient>
<clipPath id="clip0">
<rect width="445" height="94.6163" fill="white" transform="translate(0 0.900391)"/>
</clipPath>
</defs>
</svg>
