<?xml version="1.0" encoding="UTF-8"?><!DOCTYPE svg PUBLIC "-//W3C//DTD SVG 1.1//EN" "http://www.w3.org/Graphics/SVG/1.1/DTD/svg11.dtd"><svg xmlns="http://www.w3.org/2000/svg" xmlns:xlink="http://www.w3.org/1999/xlink"><symbol id="icon-fb" viewBox="0 0 12 24">
    <path d="M9.81 3.985h2.191V.169C11.623.117 10.323 0 8.809 0 5.65 0 3.486 1.987 3.486 5.639V9H0v4.266h3.486V24H7.76V13.267h3.345l.531-4.266H7.759V6.062c.001-1.233.333-2.077 2.051-2.077z"/>
</symbol><symbol id="icon-instagram" viewBox="0 0 24 24">
    <path d="M12.004 5.838a6.157 6.157 0 0 0-6.158 6.158 6.157 6.157 0 0 0 6.158 6.158 6.157 6.157 0 0 0 6.158-6.158 6.157 6.157 0 0 0-6.158-6.158zm0 10.155A3.996 3.996 0 1 1 16 11.996a3.995 3.995 0 0 1-3.997 3.997z"/>
    <path d="M16.948.077c-2.208-.103-7.677-.098-9.887 0-1.942.09-3.655.56-5.036 1.94C-.283 4.327.012 7.437.012 11.998c0 4.668-.26 7.706 2.013 9.979 2.317 2.316 5.472 2.013 9.98 2.013 4.623 0 6.22.003 7.854-.63 2.223-.863 3.901-2.85 4.065-6.42.104-2.208.098-7.676 0-9.886C23.726 2.84 21.465.285 16.948.077zm3.495 20.372c-1.513 1.513-3.612 1.378-8.468 1.378-5 0-7.005.074-8.468-1.393-1.685-1.677-1.38-4.37-1.38-8.453 0-5.525-.567-9.504 4.978-9.788 1.274-.045 1.65-.06 4.856-.06l.045.03c5.33 0 9.51-.558 9.761 4.986.057 1.265.07 1.645.07 4.847 0 4.942.093 6.959-1.394 8.453z"/>
    <path d="M18.406 7.034a1.439 1.439 0 1 0 0-2.878 1.439 1.439 0 0 0 0 2.878z"/>
</symbol><symbol id="icon-youtube" viewBox="0 0 22 16">
    <path d="M21.062 2.94a2.631 2.631 0 0 0-1.857-1.859C17.568.641 11 .641 11 .641s-6.567 0-8.205.438A2.628 2.628 0 0 0 .938 2.938C.5 4.577.5 8 .5 8s0 3.422.438 5.06a2.632 2.632 0 0 0 1.857 1.859c1.638.44 8.205.44 8.205.44s6.567 0 8.206-.44a2.628 2.628 0 0 0 1.856-1.859C21.5 11.422 21.5 8 21.5 8s0-3.422-.438-5.06zm-12.148 8.2V4.86l5.438 3.117-5.438 3.164z"/>
</symbol></svg>